<?xml version="1.0" encoding="UTF-8"?>
<!DOCTYPE svg PUBLIC "-//W3C//DTD SVG 1.1//EN" "http://www.w3.org/Graphics/SVG/1.1/DTD/svg11.dtd">
<svg version="1.1" xmlns="http://www.w3.org/2000/svg" xmlns:xlink="http://www.w3.org/1999/xlink" x="0" y="0" width="512" height="512" viewBox="0, 0, 512, 512">
  <g id="Background">
    <rect x="0" y="0" width="512" height="512" fill="#095188"/>
  </g>
  <g id="Layer_1">
    <path d="M377.6,321.1 C379.859,323.352 381.129,326.41 381.129,329.6 C381.129,332.79 379.859,335.848 377.6,338.1 L338,377.6 C335.748,379.859 332.69,381.129 329.5,381.129 C326.31,381.129 323.252,379.859 321,377.6 L256,312 L190.9,377.6 C188.648,379.859 185.59,381.129 182.4,381.129 C179.21,381.129 176.152,379.859 173.9,377.6 L134.4,338 C132.141,335.748 130.871,332.69 130.871,329.5 C130.871,326.31 132.141,323.252 134.4,321 L200,256 L134.4,190.9 C132.141,188.648 130.871,185.59 130.871,182.4 C130.871,179.21 132.141,176.152 134.4,173.9 L174,134.3 C176.252,132.041 179.31,130.771 182.5,130.771 C185.69,130.771 188.748,132.041 191,134.3 L256,200 L321.1,134.4 C323.352,132.141 326.41,130.871 329.6,130.871 C332.79,130.871 335.848,132.141 338.1,134.4 L377.7,174 C379.959,176.252 381.229,179.31 381.229,182.5 C381.229,185.69 379.959,188.748 377.7,191 L312,256 z" fill="#E70000"/>
    <path d="M256,8 C119,8 8,119 8,256 C8,393 119,504 256,504 C393,504 504,393 504,256 C504,119 393,8 256,8 z M377.6,321.1 C379.859,323.352 381.129,326.41 381.129,329.6 C381.129,332.79 379.859,335.848 377.6,338.1 L338,377.6 C335.748,379.859 332.69,381.129 329.5,381.129 C326.31,381.129 323.252,379.859 321,377.6 L256,312 L190.9,377.6 C188.648,379.859 185.59,381.129 182.4,381.129 C179.21,381.129 176.152,379.859 173.9,377.6 L134.4,338 C132.141,335.748 130.871,332.69 130.871,329.5 C130.871,326.31 132.141,323.252 134.4,321 L200,256 L134.4,190.9 C132.141,188.648 130.871,185.59 130.871,182.4 C130.871,179.21 132.141,176.152 134.4,173.9 L174,134.3 C176.252,132.041 179.31,130.771 182.5,130.771 C185.69,130.771 188.748,132.041 191,134.3 L256,200 L321.1,134.4 C323.352,132.141 326.41,130.871 329.6,130.871 C332.79,130.871 335.848,132.141 338.1,134.4 L377.7,174 C379.959,176.252 381.229,179.31 381.229,182.5 C381.229,185.69 379.959,188.748 377.7,191 L312,256 z" fill="#FFFFFF"/>
  </g>
</svg>
