<?xml version="1.0" encoding="UTF-8"?>
<!DOCTYPE svg PUBLIC "-//W3C//DTD SVG 1.1//EN" "http://www.w3.org/Graphics/SVG/1.1/DTD/svg11.dtd">
<svg version="1.1" xmlns="http://www.w3.org/2000/svg" xmlns:xlink="http://www.w3.org/1999/xlink" x="0" y="0" width="512" height="512" viewBox="0, 0, 512, 512">
  <g id="Background">
    <rect x="0" y="0" width="512" height="512" fill="#095188"/>
  </g>
  <g id="Layer_1">
    <path d="M256,497 C122.899,497 15,389.101 15,256 C15,122.899 122.899,15 256,15 C389.101,15 497,122.899 497,256 C497,389.101 389.101,497 256,497 z" fill="#FFFFFF"/>
    <path d="M386.576,130.735 L195.597,321.713 L125.425,251.541 C122.023,248.139 116.506,248.139 113.103,251.541 L92.568,272.076 C89.166,275.478 89.166,280.994 92.568,284.397 L189.436,381.265 C192.838,384.667 198.355,384.667 201.758,381.265 L419.432,163.591 C422.834,160.189 422.834,154.673 419.432,151.27 L398.897,130.735 C395.494,127.333 389.978,127.333 386.576,130.735 z" fill="#4BE41A"/>
  </g>
</svg>
