<?xml version="1.0" encoding="UTF-8"?>
<!DOCTYPE svg PUBLIC "-//W3C//DTD SVG 1.1//EN" "http://www.w3.org/Graphics/SVG/1.1/DTD/svg11.dtd">
<svg version="1.1" xmlns="http://www.w3.org/2000/svg" xmlns:xlink="http://www.w3.org/1999/xlink" x="0" y="0" width="240" height="320" viewBox="0, 0, 240, 320">
  <g id="Background">
    <rect x="0" y="0" width="240" height="320" fill="#095188"/>
  </g>
  <g id="Layer_1">
    <g>
      <path d="M19.265,135.254 C18.891,134.973 18.517,134.272 18.891,133.617 L20.855,129.643 C21.182,128.895 21.93,128.661 22.631,129.128 C24.034,129.97 26.185,131.092 29.364,131.092 C31.655,131.092 32.73,130.251 32.73,128.895 C32.73,127.492 31.001,126.276 26.979,124.687 C21.088,122.443 18.47,119.684 18.47,115.055 C18.47,110.426 21.977,106.125 29.411,106.125 C33.899,106.125 36.798,107.294 38.435,108.369 C39.089,108.883 39.51,109.678 39.089,110.473 L37.359,113.98 C36.892,114.728 36.097,114.821 35.442,114.588 C33.993,113.933 31.889,113.045 29.364,113.045 C27.307,113.045 26.465,114.027 26.465,115.008 C26.465,116.411 28.008,117.112 30.813,118.328 C36.705,120.713 40.913,122.817 40.913,128.895 C40.913,133.711 36.798,138.012 29.177,138.012 C24.127,138.059 20.995,136.469 19.265,135.254 z" fill="#FFFFFF"/>
      <path d="M46.851,96.587 C46.851,95.838 47.599,95.137 48.3,95.137 L53.63,95.137 C54.425,95.137 55.08,95.885 55.08,96.587 L55.08,110.239 C56.622,108.93 59.241,107.668 62.888,107.668 C72.613,107.668 75.231,114.401 75.231,122.068 L75.231,137.404 C75.231,138.199 74.483,138.854 73.782,138.854 L68.452,138.854 C67.657,138.854 67.002,138.199 67.002,137.404 L67.002,122.022 C67.002,117.814 65.085,115.242 61.438,115.242 C57.885,115.242 55.874,117.487 55.08,120.572 L55.08,137.404 C55.08,138.246 54.706,138.854 53.49,138.854 L48.253,138.854 C47.505,138.854 46.804,138.199 46.804,137.404 L46.804,96.587 z" fill="#FFFFFF"/>
      <path d="M117.498,138.059 C114.459,138.059 111.56,137.311 110.158,136.797 L110.158,147.55 C110.158,148.299 109.41,149 108.708,149 L103.378,149 C102.583,149 101.929,148.252 101.929,147.55 L101.929,108.276 C101.929,107.481 102.583,106.826 103.378,106.826 L105.809,106.826 C106.558,106.826 106.979,107.434 107.259,108.276 L108.054,110.707 C108.054,110.707 111.56,106.171 118.013,106.171 C126.335,106.171 132.601,112.904 132.601,122.162 C132.601,131.046 126.616,138.059 117.498,138.059 z M110.158,128.801 C110.158,128.801 112.682,130.531 116.517,130.531 C121.519,130.531 124.091,126.417 124.091,122.162 C124.091,117.86 121.66,113.699 116.891,113.699 C112.916,113.699 110.812,116.224 110.158,117.907 L110.158,128.801 z" fill="#FFFFFF"/>
      <path d="M148.778,118.047 C151.864,118.047 154.669,118.889 154.669,118.889 C154.809,115.008 153.687,113.138 150.461,113.138 C147.703,113.138 143.682,113.746 141.858,114.26 C140.877,114.588 140.269,113.886 140.128,112.951 L139.474,109.538 C139.193,108.416 139.801,107.901 140.455,107.668 C141.11,107.387 145.926,106.171 150.882,106.171 C160.374,106.171 162.384,111.128 162.384,119.45 L162.384,135.908 C162.384,136.703 161.729,137.358 160.935,137.358 L158.69,137.358 C158.176,137.358 157.756,137.171 157.381,136.282 L156.539,134.225 C154.763,135.955 151.724,138.059 146.955,138.059 C140.877,138.059 136.668,134.178 136.668,127.633 C136.622,122.209 141.063,118.047 148.778,118.047 z M148.965,131.887 C151.677,131.887 154.062,129.783 154.436,128.661 L154.436,124.173 C154.436,124.173 152.378,123.237 149.947,123.237 C146.44,123.237 144.523,124.874 144.523,127.586 C144.57,130.204 146.16,131.887 148.965,131.887 z" fill="#FFFFFF"/>
      <path d="M170.005,108.276 C170.005,107.434 170.754,106.826 171.455,106.826 L173.886,106.826 C174.634,106.826 174.962,107.154 175.195,107.808 L176.317,110.8 C177.393,109.257 180.198,106.171 184.92,106.171 C188.568,106.171 191.513,107.154 190.671,109.164 L188.708,113.652 C188.38,114.401 187.632,114.634 186.931,114.307 C186.23,113.98 185.481,113.699 184.079,113.699 C180.759,113.699 178.796,115.803 178.281,116.879 L178.281,135.908 C178.281,137.03 177.533,137.358 176.551,137.358 L171.455,137.358 C170.707,137.358 170.005,136.703 170.005,135.908 L170.005,108.276 z" fill="#FFFFFF"/>
      <path d="M205.96,106.171 C208.999,106.171 211.898,106.92 213.301,107.434 L213.301,96.587 C213.301,95.838 214.049,95.137 214.751,95.137 L220.081,95.137 C220.875,95.137 221.53,95.885 221.53,96.587 L221.53,135.861 C221.53,136.656 220.875,137.311 220.081,137.311 L217.649,137.311 C216.902,137.311 216.481,136.703 216.2,135.861 L215.405,133.477 C215.405,133.477 211.898,138.012 205.446,138.012 C197.124,138.012 190.858,131.279 190.858,122.022 C190.858,113.138 196.843,106.171 205.96,106.171 z M213.722,115.382 C213.722,115.382 211.197,113.652 207.363,113.652 C202.36,113.652 199.789,117.767 199.789,122.022 C199.789,126.323 202.22,130.485 206.989,130.485 C210.964,130.485 213.067,127.96 213.722,126.276 L213.722,115.382 z" fill="#FFFFFF"/>
      <path d="M93.466,96.026 L92.203,100.888 C92.016,101.542 91.455,101.963 90.801,101.963 L86.219,101.963 C85.564,101.963 84.957,101.496 84.816,100.888 L83.554,96.026 C83.367,95.324 83.741,94.576 84.442,94.296 C85.33,93.968 86.733,93.594 88.51,93.594 C90.287,93.594 91.689,93.968 92.577,94.296 C93.279,94.576 93.653,95.277 93.466,96.026 z" fill="#FFFFFF"/>
      <path d="M94.355,136.002 L91.549,108.182 C91.503,107.434 90.848,106.873 90.1,106.873 L86.874,106.873 C86.125,106.873 85.471,107.434 85.424,108.182 L82.619,136.002 C82.572,136.516 82.806,137.03 83.273,137.358 L87.669,140.257 C88.136,140.584 88.791,140.584 89.258,140.257 L93.653,137.358 C94.168,137.03 94.401,136.516 94.355,136.002 z" fill="#FFFFFF"/>
    </g>
  </g>
</svg>
