<?xml version="1.0" encoding="UTF-8"?>
<!DOCTYPE svg PUBLIC "-//W3C//DTD SVG 1.1//EN" "http://www.w3.org/Graphics/SVG/1.1/DTD/svg11.dtd">
<svg version="1.1" xmlns="http://www.w3.org/2000/svg" xmlns:xlink="http://www.w3.org/1999/xlink" x="0" y="0" width="320" height="106" viewBox="0, 0, 320, 106">
  <g id="Background">
    <rect x="0" y="0" width="320" height="106" fill="#FFFFFF"/>
  </g>
  <g id="Background">
    <path d="M0,-0 L320,-0 L320,106.667 L0,106.667 z" fill="#095188"/>
  </g>
  <g id="Layer_1">
    <path d="M25.687,71.943 C25.188,71.568 24.689,70.633 25.188,69.76 L27.807,64.461 C28.243,63.464 29.24,63.152 30.175,63.775 C32.045,64.897 34.913,66.393 39.152,66.393 C42.207,66.393 43.64,65.272 43.64,63.464 C43.64,61.593 41.335,59.972 35.972,57.853 C28.117,54.861 24.627,51.183 24.627,45.011 C24.627,38.839 29.303,33.104 39.215,33.104 C45.199,33.104 49.064,34.663 51.247,36.096 C52.119,36.781 52.68,37.841 52.119,38.901 L49.812,43.577 C49.189,44.575 48.129,44.699 47.256,44.388 C45.324,43.515 42.519,42.331 39.152,42.331 C36.409,42.331 35.287,43.64 35.287,44.948 C35.287,46.819 37.344,47.753 41.084,49.375 C48.94,52.555 54.551,55.36 54.551,63.464 C54.551,69.885 49.064,75.62 38.903,75.62 C32.169,75.683 27.993,73.563 25.687,71.943 z" fill="#FFFFFF"/>
    <path d="M62.468,20.387 C62.468,19.388 63.465,18.453 64.4,18.453 L71.507,18.453 C72.567,18.453 73.44,19.451 73.44,20.387 L73.44,38.589 C75.496,36.844 78.988,35.161 83.851,35.161 C96.817,35.161 100.308,44.139 100.308,54.361 L100.308,74.809 C100.308,75.869 99.311,76.743 98.376,76.743 L91.269,76.743 C90.209,76.743 89.336,75.869 89.336,74.809 L89.336,54.3 C89.336,48.689 86.78,45.26 81.917,45.26 C77.18,45.26 74.499,48.253 73.44,52.367 L73.44,74.809 C73.44,75.932 72.941,76.743 71.32,76.743 L64.337,76.743 C63.34,76.743 62.405,75.869 62.405,74.809 L62.405,20.387 z" fill="#FFFFFF"/>
    <path d="M156.664,75.683 C152.612,75.683 148.747,74.685 146.877,74 L146.877,88.337 C146.877,89.335 145.88,90.271 144.944,90.271 L137.837,90.271 C136.777,90.271 135.905,89.273 135.905,88.337 L135.905,35.972 C135.905,34.912 136.777,34.039 137.837,34.039 L141.079,34.039 C142.077,34.039 142.639,34.849 143.012,35.972 L144.072,39.213 C144.072,39.213 148.747,33.165 157.351,33.165 C168.447,33.165 176.801,42.143 176.801,54.487 C176.801,66.332 168.821,75.683 156.664,75.683 z M146.877,63.339 C146.877,63.339 150.243,65.645 155.356,65.645 C162.025,65.645 165.455,60.16 165.455,54.487 C165.455,48.751 162.213,43.203 155.855,43.203 C150.555,43.203 147.749,46.569 146.877,48.813 L146.877,63.339 z" fill="#FFFFFF"/>
    <path d="M198.371,49 C202.485,49 206.225,50.123 206.225,50.123 C206.412,44.948 204.916,42.455 200.615,42.455 C196.937,42.455 191.576,43.265 189.144,43.951 C187.836,44.388 187.025,43.452 186.837,42.205 L185.965,37.655 C185.591,36.159 186.401,35.472 187.273,35.161 C188.147,34.787 194.568,33.165 201.176,33.165 C213.832,33.165 216.512,39.775 216.512,50.871 L216.512,72.815 C216.512,73.875 215.639,74.748 214.58,74.748 L211.587,74.748 C210.901,74.748 210.341,74.499 209.841,73.313 L208.719,70.571 C206.351,72.877 202.299,75.683 195.94,75.683 C187.836,75.683 182.224,70.508 182.224,61.78 C182.163,54.549 188.084,49 198.371,49 z M198.62,67.453 C202.236,67.453 205.416,64.648 205.915,63.152 L205.915,57.168 C205.915,57.168 203.171,55.92 199.929,55.92 C195.253,55.92 192.697,58.103 192.697,61.719 C192.76,65.209 194.88,67.453 198.62,67.453 z" fill="#FFFFFF"/>
    <path d="M226.673,35.972 C226.673,34.849 227.672,34.039 228.607,34.039 L231.848,34.039 C232.845,34.039 233.283,34.476 233.593,35.348 L235.089,39.337 C236.524,37.28 240.264,33.165 246.56,33.165 C251.424,33.165 255.351,34.476 254.228,37.156 L251.611,43.14 C251.173,44.139 250.176,44.449 249.241,44.013 C248.307,43.577 247.308,43.203 245.439,43.203 C241.012,43.203 238.395,46.008 237.708,47.443 L237.708,72.815 C237.708,74.311 236.711,74.748 235.401,74.748 L228.607,74.748 C227.609,74.748 226.673,73.875 226.673,72.815 L226.673,35.972 z" fill="#FFFFFF"/>
    <path d="M274.613,33.165 C278.665,33.165 282.531,34.164 284.401,34.849 L284.401,20.387 C284.401,19.388 285.399,18.453 286.335,18.453 L293.441,18.453 C294.5,18.453 295.373,19.451 295.373,20.387 L295.373,72.752 C295.373,73.812 294.5,74.685 293.441,74.685 L290.199,74.685 C289.203,74.685 288.641,73.875 288.267,72.752 L287.207,69.573 C287.207,69.573 282.531,75.62 273.928,75.62 C262.832,75.62 254.477,66.643 254.477,54.3 C254.477,42.455 262.457,33.165 274.613,33.165 z M284.963,45.447 C284.963,45.447 281.596,43.14 276.484,43.14 C269.813,43.14 266.385,48.627 266.385,54.3 C266.385,60.035 269.627,65.584 275.985,65.584 C281.285,65.584 284.089,62.217 284.963,59.972 L284.963,45.447 z" fill="#FFFFFF"/>
    <path d="M124.621,19.639 L122.937,26.121 C122.688,26.993 121.94,27.555 121.068,27.555 L114.959,27.555 C114.085,27.555 113.276,26.932 113.088,26.121 L111.405,19.639 C111.156,18.703 111.655,17.705 112.589,17.332 C113.773,16.895 115.644,16.396 118.013,16.396 C120.383,16.396 122.252,16.895 123.436,17.332 C124.372,17.705 124.871,18.64 124.621,19.639 z" fill="#FFFFFF"/>
    <path d="M125.807,72.94 L122.065,35.847 C122.004,34.849 121.131,34.101 120.133,34.101 L115.832,34.101 C114.833,34.101 113.961,34.849 113.899,35.847 L110.159,72.94 C110.096,73.625 110.408,74.311 111.031,74.748 L116.892,78.613 C117.515,79.049 118.388,79.049 119.011,78.613 L124.871,74.748 C125.557,74.311 125.868,73.625 125.807,72.94 z" fill="#FFFFFF"/>
  </g>
</svg>
