<?xml version="1.0" encoding="UTF-8"?>
<!DOCTYPE svg PUBLIC "-//W3C//DTD SVG 1.1//EN" "http://www.w3.org/Graphics/SVG/1.1/DTD/svg11.dtd">
<svg version="1.1" xmlns="http://www.w3.org/2000/svg" xmlns:xlink="http://www.w3.org/1999/xlink" x="0" y="0" width="240" height="80" viewBox="0, 0, 240, 80">
  <g id="Background">
    <rect x="0" y="0" width="240" height="80" fill="#095188"/>
  </g>
  <g id="Layer_1">
    <g>
      <path d="M19.265,53.957 C18.891,53.676 18.517,52.975 18.891,52.32 L20.855,48.346 C21.182,47.598 21.93,47.364 22.631,47.831 C24.034,48.673 26.185,49.795 29.364,49.795 C31.655,49.795 32.73,48.954 32.73,47.598 C32.73,46.195 31.001,44.979 26.979,43.39 C21.088,41.146 18.47,38.387 18.47,33.758 C18.47,29.129 21.977,24.828 29.411,24.828 C33.899,24.828 36.798,25.997 38.435,27.072 C39.089,27.586 39.51,28.381 39.089,29.176 L37.359,32.683 C36.892,33.431 36.097,33.524 35.442,33.291 C33.993,32.636 31.889,31.748 29.364,31.748 C27.307,31.748 26.465,32.73 26.465,33.711 C26.465,35.114 28.008,35.815 30.813,37.031 C36.705,39.416 40.913,41.52 40.913,47.598 C40.913,52.414 36.798,56.715 29.177,56.715 C24.127,56.762 20.995,55.172 19.265,53.957 z" fill="#FFFFFF"/>
      <path d="M46.851,15.29 C46.851,14.541 47.599,13.84 48.3,13.84 L53.63,13.84 C54.425,13.84 55.08,14.588 55.08,15.29 L55.08,28.942 C56.622,27.633 59.241,26.371 62.888,26.371 C72.613,26.371 75.231,33.104 75.231,40.771 L75.231,56.107 C75.231,56.902 74.483,57.557 73.782,57.557 L68.452,57.557 C67.657,57.557 67.002,56.902 67.002,56.107 L67.002,40.725 C67.002,36.517 65.085,33.945 61.438,33.945 C57.885,33.945 55.874,36.19 55.08,39.275 L55.08,56.107 C55.08,56.949 54.706,57.557 53.49,57.557 L48.253,57.557 C47.505,57.557 46.804,56.902 46.804,56.107 L46.804,15.29 z" fill="#FFFFFF"/>
      <path d="M117.498,56.762 C114.459,56.762 111.56,56.014 110.158,55.5 L110.158,66.253 C110.158,67.001 109.41,67.703 108.708,67.703 L103.378,67.703 C102.583,67.703 101.929,66.955 101.929,66.253 L101.929,26.979 C101.929,26.184 102.583,25.529 103.378,25.529 L105.809,25.529 C106.558,25.529 106.979,26.137 107.259,26.979 L108.054,29.41 C108.054,29.41 111.56,24.874 118.013,24.874 C126.335,24.874 132.601,31.607 132.601,40.865 C132.601,49.749 126.616,56.762 117.498,56.762 z M110.158,47.504 C110.158,47.504 112.682,49.234 116.517,49.234 C121.519,49.234 124.091,45.12 124.091,40.865 C124.091,36.563 121.66,32.402 116.891,32.402 C112.916,32.402 110.812,34.927 110.158,36.61 L110.158,47.504 z" fill="#FFFFFF"/>
      <path d="M148.778,36.75 C151.864,36.75 154.669,37.592 154.669,37.592 C154.809,33.711 153.687,31.841 150.461,31.841 C147.703,31.841 143.682,32.449 141.858,32.963 C140.877,33.291 140.269,32.589 140.128,31.654 L139.474,28.241 C139.193,27.119 139.801,26.604 140.455,26.371 C141.11,26.09 145.926,24.874 150.882,24.874 C160.374,24.874 162.384,29.831 162.384,38.153 L162.384,54.611 C162.384,55.406 161.729,56.061 160.935,56.061 L158.69,56.061 C158.176,56.061 157.756,55.874 157.381,54.985 L156.539,52.928 C154.763,54.658 151.724,56.762 146.955,56.762 C140.877,56.762 136.668,52.881 136.668,46.335 C136.622,40.912 141.063,36.75 148.778,36.75 z M148.965,50.59 C151.677,50.59 154.062,48.486 154.436,47.364 L154.436,42.876 C154.436,42.876 152.378,41.94 149.947,41.94 C146.44,41.94 144.523,43.577 144.523,46.289 C144.57,48.907 146.16,50.59 148.965,50.59 z" fill="#FFFFFF"/>
      <path d="M170.005,26.979 C170.005,26.137 170.754,25.529 171.455,25.529 L173.886,25.529 C174.634,25.529 174.962,25.857 175.195,26.511 L176.317,29.503 C177.393,27.96 180.198,24.874 184.92,24.874 C188.568,24.874 191.513,25.857 190.671,27.867 L188.708,32.355 C188.38,33.104 187.632,33.337 186.931,33.01 C186.23,32.683 185.481,32.402 184.079,32.402 C180.759,32.402 178.796,34.506 178.281,35.582 L178.281,54.611 C178.281,55.733 177.533,56.061 176.551,56.061 L171.455,56.061 C170.707,56.061 170.005,55.406 170.005,54.611 L170.005,26.979 z" fill="#FFFFFF"/>
      <path d="M205.96,24.874 C208.999,24.874 211.898,25.623 213.301,26.137 L213.301,15.29 C213.301,14.541 214.049,13.84 214.751,13.84 L220.081,13.84 C220.875,13.84 221.53,14.588 221.53,15.29 L221.53,54.564 C221.53,55.359 220.875,56.014 220.081,56.014 L217.649,56.014 C216.902,56.014 216.481,55.406 216.2,54.564 L215.405,52.18 C215.405,52.18 211.898,56.715 205.446,56.715 C197.124,56.715 190.858,49.982 190.858,40.725 C190.858,31.841 196.843,24.874 205.96,24.874 z M213.722,34.085 C213.722,34.085 211.197,32.355 207.363,32.355 C202.36,32.355 199.789,36.47 199.789,40.725 C199.789,45.026 202.22,49.188 206.989,49.188 C210.964,49.188 213.067,46.663 213.722,44.979 L213.722,34.085 z" fill="#FFFFFF"/>
      <path d="M93.466,14.729 L92.203,19.591 C92.016,20.245 91.455,20.666 90.801,20.666 L86.219,20.666 C85.564,20.666 84.957,20.199 84.816,19.591 L83.554,14.729 C83.367,14.027 83.741,13.279 84.442,12.999 C85.33,12.671 86.733,12.297 88.51,12.297 C90.287,12.297 91.689,12.671 92.577,12.999 C93.279,13.279 93.653,13.98 93.466,14.729 z" fill="#FFFFFF"/>
      <path d="M94.355,54.705 L91.549,26.885 C91.503,26.137 90.848,25.576 90.1,25.576 L86.874,25.576 C86.125,25.576 85.471,26.137 85.424,26.885 L82.619,54.705 C82.572,55.219 82.806,55.733 83.273,56.061 L87.669,58.96 C88.136,59.287 88.791,59.287 89.258,58.96 L93.653,56.061 C94.168,55.733 94.401,55.219 94.355,54.705 z" fill="#FFFFFF"/>
    </g>
  </g>
</svg>
